<?xml version="1.0" encoding="UTF-8"?>
<!DOCTYPE svg PUBLIC "-//W3C//DTD SVG 1.1//EN" "http://www.w3.org/Graphics/SVG/1.1/DTD/svg11.dtd">
<svg xmlns="http://www.w3.org/2000/svg" version="1.1" width="1211px" height="403px" style="shape-rendering:geometricPrecision; text-rendering:geometricPrecision; image-rendering:optimizeQuality; fill-rule:evenodd; clip-rule:evenodd" xmlns:xlink="http://www.w3.org/1999/xlink">
<g><path style="opacity:1" fill="#252122" d="M 105.5,26.5 C 106.833,28.5 108.5,30.1667 110.5,31.5C 111.5,31.8333 112.167,32.5 112.5,33.5C 112.427,35.0269 113.094,36.0269 114.5,36.5C 114.427,38.0269 115.094,39.0269 116.5,39.5C 116.427,41.0269 117.094,42.0269 118.5,42.5C 121.674,47.5156 124.341,52.8489 126.5,58.5C 126.427,60.0269 127.094,61.0269 128.5,61.5C 132.008,67.1823 135.008,73.1823 137.5,79.5C 137.427,81.0269 138.094,82.0269 139.5,82.5C 143.008,88.1823 146.008,94.1823 148.5,100.5C 148.427,102.027 149.094,103.027 150.5,103.5C 153.341,107.849 155.674,112.516 157.5,117.5C 157.427,119.027 158.094,120.027 159.5,120.5C 162.341,124.849 164.674,129.516 166.5,134.5C 166.427,136.027 167.094,137.027 168.5,137.5C 172.008,143.182 175.008,149.182 177.5,155.5C 177.427,157.027 178.094,158.027 179.5,158.5C 185.008,168.182 190.008,178.182 194.5,188.5C 194.427,190.027 195.094,191.027 196.5,191.5C 199.341,195.849 201.674,200.516 203.5,205.5C 204.167,208.167 204.833,208.167 205.5,205.5C 225.029,154.751 244.863,104.084 265,53.5C 267.67,46.8269 270.837,40.4936 274.5,34.5C 276.262,33.7377 277.262,32.4044 277.5,30.5C 280.5,28.1667 283.167,25.5 285.5,22.5C 287.027,22.573 288.027,21.9063 288.5,20.5C 290.027,20.573 291.027,19.9063 291.5,18.5C 297.331,15.3571 303.664,13.5237 310.5,13C 328.5,12.3333 346.5,12.3333 364.5,13C 367.167,16 367.167,19 364.5,22C 357.326,24.4601 349.993,26.2934 342.5,27.5C 342.333,110.167 342.5,192.834 343,275.5C 349.74,277.56 356.573,279.394 363.5,281C 367.436,284.508 367.436,287.841 363.5,291C 326.664,291.831 289.998,291.664 253.5,290.5C 253.167,289.5 252.5,288.833 251.5,288.5C 251.166,285.812 251.832,283.479 253.5,281.5C 255.838,279.96 258.505,279.294 261.5,279.5C 265.837,279.416 269.837,278.416 273.5,276.5C 273.866,223.167 274.199,169.834 274.5,116.5C 275.661,101.672 275.828,86.6723 275,71.5C 273.812,72.5634 273.312,73.8967 273.5,75.5C 245.303,146.917 216.803,218.25 188,289.5C 186.488,292.857 183.988,294.857 180.5,295.5C 177.215,295.79 174.215,295.123 171.5,293.5C 169.113,291.087 166.946,288.42 165,285.5C 130.525,217.884 95.5253,150.55 60,83.5C 58.7286,80.5156 57.562,77.5156 56.5,74.5C 56.0133,73.5266 55.5133,72.5266 55,71.5C 54.1679,138.335 54.3346,205.001 55.5,271.5C 65.4173,273.47 74.7506,276.804 83.5,281.5C 84.2653,284.096 84.5987,286.763 84.5,289.5C 84.3893,290.117 84.056,290.617 83.5,291C 58.8333,291.667 34.1667,291.667 9.5,291C 5.9706,288.423 5.63727,285.59 8.5,282.5C 10.0269,282.573 11.0269,281.906 11.5,280.5C 19.6116,276.907 27.945,273.907 36.5,271.5C 37.8333,271.5 38.5,270.833 38.5,269.5C 37.8417,188.859 37.175,108.193 36.5,27.5C 29.7413,26.4933 23.408,24.4933 17.5,21.5C 17.1667,20.5 16.5,19.8333 15.5,19.5C 14.0584,17.1831 14.3918,15.0164 16.5,13C 32.8355,12.2794 49.1688,11.946 65.5,12C 76.4207,11.8739 86.754,14.2072 96.5,19C 99.9405,21.0421 102.94,23.5421 105.5,26.5 Z"/></g>
<g><path style="opacity:0.945" fill="#615e5f" d="M 526.5,13.5 C 521.86,12.9749 517.527,13.6416 513.5,15.5C 513.414,14.5041 513.748,13.6708 514.5,13C 518.689,12.1881 522.689,12.3547 526.5,13.5 Z"/></g>
<g><path style="opacity:0.882" fill="#666363" d="M 1055.5,13.5 C 1051.43,13.307 1047.43,13.6403 1043.5,14.5C 1043.61,13.8826 1043.94,13.3826 1044.5,13C 1048.36,12.1901 1052.02,12.3567 1055.5,13.5 Z"/></g>
<g><path style="opacity:1" fill="#262223" d="M 526.5,13.5 C 528.017,13.5106 529.184,14.1772 530,15.5C 566.609,102.385 602.943,189.385 639,276.5C 639.833,278.667 641.333,280.167 643.5,281C 648.938,282.359 654.272,284.026 659.5,286C 661.608,288.016 661.942,290.183 660.5,292.5C 659.5,292.833 658.833,293.5 658.5,294.5C 649.141,295.203 639.641,295.87 630,296.5C 620.201,295.703 610.368,295.203 600.5,295C 592.735,294.358 585.735,291.858 579.5,287.5C 578.738,285.738 577.404,284.738 575.5,284.5C 574.738,282.738 573.404,281.738 571.5,281.5C 567.485,277.644 563.985,273.311 561,268.5C 552.662,251.495 545.162,234.161 538.5,216.5C 523.515,215.167 508.182,214.501 492.5,214.5C 476.996,214.5 461.663,214.833 446.5,215.5C 438.301,235.432 430.301,255.432 422.5,275.5C 431.582,278.696 440.582,282.196 449.5,286C 452.418,289.472 452.085,292.472 448.5,295C 424.167,295.667 399.833,295.667 375.5,295C 373.542,292.997 373.209,290.831 374.5,288.5C 375.833,287.833 376.833,286.833 377.5,285.5C 385.974,281.006 394.974,277.672 404.5,275.5C 406.048,275.179 406.715,274.179 406.5,272.5C 441.601,186.514 477.267,100.847 513.5,15.5C 517.527,13.6416 521.86,12.9749 526.5,13.5 Z M 491.5,106.5 C 492.167,107.167 492.833,107.833 493.5,108.5C 505.796,139.072 518.462,169.405 531.5,199.5C 518.684,200.833 505.517,201.499 492,201.5C 478.483,201.499 465.316,200.833 452.5,199.5C 465.736,168.683 478.736,137.683 491.5,106.5 Z"/></g>
<g><path style="opacity:1" fill="#262223" d="M 1055.5,13.5 C 1056.17,13.5 1056.5,13.8333 1056.5,14.5C 1056.66,16.153 1057.33,17.4863 1058.5,18.5C 1095.9,104.65 1132.24,191.316 1167.5,278.5C 1167.5,279.833 1168.17,280.5 1169.5,280.5C 1175.96,281.866 1182.29,283.699 1188.5,286C 1191.8,290.489 1190.8,293.489 1185.5,295C 1167.5,295.667 1149.5,295.667 1131.5,295C 1123.42,294.984 1116.08,292.817 1109.5,288.5C 1109.03,287.094 1108.03,286.427 1106.5,286.5C 1105.74,284.738 1104.4,283.738 1102.5,283.5C 1100.5,280.833 1098.17,278.5 1095.5,276.5C 1094.5,276.167 1093.83,275.5 1093.5,274.5C 1093.57,272.973 1092.91,271.973 1091.5,271.5C 1087.85,266.219 1084.69,260.552 1082,254.5C 1076.97,241.233 1071.47,228.233 1065.5,215.5C 1050.5,214.833 1035.34,214.5 1020,214.5C 1004.48,214.501 989.318,215.167 974.5,216.5C 966.77,234.85 958.937,253.184 951,271.5C 950.51,272.793 950.343,274.127 950.5,275.5C 959.898,278.371 968.898,282.038 977.5,286.5C 978.15,288.435 978.483,290.435 978.5,292.5C 978.047,293.458 977.381,294.292 976.5,295C 952.836,295.5 929.169,295.667 905.5,295.5C 904.833,294.167 903.833,293.167 902.5,292.5C 901.058,290.183 901.392,288.016 903.5,286C 913.406,281.865 923.406,278.032 933.5,274.5C 935.048,274.179 935.715,273.179 935.5,271.5C 969.698,187.415 1004.2,103.415 1039,19.5C 1040.05,17.2925 1041.55,15.6258 1043.5,14.5C 1047.43,13.6403 1051.43,13.307 1055.5,13.5 Z M 1019.5,106.5 C 1020.17,107.167 1020.83,107.833 1021.5,108.5C 1033.65,138.799 1046.32,168.799 1059.5,198.5C 1059.5,199.5 1059.5,200.5 1059.5,201.5C 1032.99,201.831 1006.66,201.498 980.5,200.5C 993.871,169.405 1006.87,138.071 1019.5,106.5 Z"/></g>
<g><path style="opacity:1" fill="#252222" d="M 734.5,23.5 C 734.973,24.9063 735.973,25.573 737.5,25.5C 739.833,27.1667 741.833,29.1667 743.5,31.5C 743.427,33.0269 744.094,34.0269 745.5,34.5C 745.738,36.4044 746.738,37.7377 748.5,38.5C 748.427,40.0269 749.094,41.0269 750.5,41.5C 750.427,43.0269 751.094,44.0269 752.5,44.5C 772.008,82.1824 791.008,120.182 809.5,158.5C 810.86,161.015 811.86,160.682 812.5,157.5C 830.541,116.548 848.874,75.7149 867.5,35C 858.5,31.3333 849.5,27.6667 840.5,24C 837.486,20.1313 837.819,16.7979 841.5,14C 865.833,13.3333 890.167,13.3333 914.5,14C 920.744,16.4283 921.078,19.7616 915.5,24C 906.49,27.8926 897.323,31.3926 888,34.5C 886.779,35.2718 885.779,36.2718 885,37.5C 862.211,87.4076 839.711,137.408 817.5,187.5C 816.502,217.995 816.169,248.662 816.5,279.5C 817.5,279.5 818.5,279.5 819.5,279.5C 826.503,280.251 833.17,281.917 839.5,284.5C 839.427,286.027 840.094,287.027 841.5,287.5C 842.376,290.329 841.376,292.496 838.5,294C 802.167,294.667 765.833,294.667 729.5,294C 728.584,293.722 727.918,293.222 727.5,292.5C 727.167,291.5 726.5,290.833 725.5,290.5C 724.113,288.511 724.447,286.678 726.5,285C 730.307,283.119 734.307,281.953 738.5,281.5C 741.781,281.58 744.781,280.913 747.5,279.5C 748.833,265.015 749.499,250.182 749.5,235C 749.5,219.996 749.167,205.163 748.5,190.5C 722.929,137.356 696.762,84.3555 670,31.5C 668.421,29.9588 666.587,28.7922 664.5,28C 660.628,27.0965 656.961,25.9298 653.5,24.5C 652.101,23.1103 650.434,22.1103 648.5,21.5C 648.517,19.4352 648.85,17.4352 649.5,15.5C 649.918,14.7784 650.584,14.2784 651.5,14C 669.167,13.3333 686.833,13.3333 704.5,14C 715.547,14.2955 725.547,17.4621 734.5,23.5 Z"/></g>
<g><path style="opacity:0.478" fill="#6e6b6c" d="M 1056.5,14.5 C 1058.1,15.287 1058.77,16.6203 1058.5,18.5C 1057.33,17.4863 1056.66,16.153 1056.5,14.5 Z"/></g>
<g><path style="opacity:0.333" fill="#7c7a7b" d="M 649.5,15.5 C 648.85,17.4352 648.517,19.4352 648.5,21.5C 647.861,20.9032 647.528,20.0698 647.5,19C 647.387,17.3009 648.053,16.1342 649.5,15.5 Z"/></g>
<g><path style="opacity:0.957" fill="#696666" d="M 291.5,18.5 C 291.027,19.9063 290.027,20.573 288.5,20.5C 288.973,19.0937 289.973,18.427 291.5,18.5 Z"/></g>
<g><path style="opacity:0.016" fill="#7c7a7a" d="M 15.5,19.5 C 16.5,19.8333 17.1667,20.5 17.5,21.5C 16.1667,21.5 15.5,20.8333 15.5,19.5 Z"/></g>
<g><path style="opacity:0.988" fill="#5b5859" d="M 288.5,20.5 C 288.027,21.9063 287.027,22.573 285.5,22.5C 285.973,21.0937 286.973,20.427 288.5,20.5 Z"/></g>
<g><path style="opacity:1" fill="#595657" d="M 648.5,21.5 C 650.434,22.1103 652.101,23.1103 653.5,24.5C 651.067,24.7271 649.401,23.7271 648.5,21.5 Z"/></g>
<g><path style="opacity:0.008" fill="#807d7e" d="M 734.5,23.5 C 736.027,23.427 737.027,24.0937 737.5,25.5C 735.973,25.573 734.973,24.9063 734.5,23.5 Z"/></g>
<g><path style="opacity:0.969" fill="#615e5f" d="M 285.5,22.5 C 283.167,25.5 280.5,28.1667 277.5,30.5C 279.167,26.8333 281.833,24.1667 285.5,22.5 Z"/></g>
<g><path style="opacity:0.008" fill="#797676" d="M 105.5,26.5 C 108.167,27.1667 109.833,28.8333 110.5,31.5C 108.5,30.1667 106.833,28.5 105.5,26.5 Z"/></g>
<g><path style="opacity:0.933" fill="#625f60" d="M 277.5,30.5 C 277.262,32.4044 276.262,33.7377 274.5,34.5C 274.738,32.5956 275.738,31.2623 277.5,30.5 Z"/></g>
<g><path style="opacity:0.824" fill="#6d6a6b" d="M 743.5,31.5 C 744.906,31.9731 745.573,32.9731 745.5,34.5C 744.094,34.0269 743.427,33.0269 743.5,31.5 Z"/></g>
<g><path style="opacity:0.78" fill="#6e6b6c" d="M 112.5,33.5 C 113.906,33.9731 114.573,34.9731 114.5,36.5C 113.094,36.0269 112.427,35.0269 112.5,33.5 Z"/></g>
<g><path style="opacity:0.961" fill="#5c5a5a" d="M 745.5,34.5 C 747.262,35.2623 748.262,36.5956 748.5,38.5C 746.738,37.7377 745.738,36.4044 745.5,34.5 Z"/></g>
<g><path style="opacity:0.812" fill="#696666" d="M 114.5,36.5 C 115.906,36.9731 116.573,37.9731 116.5,39.5C 115.094,39.0269 114.427,38.0269 114.5,36.5 Z"/></g>
<g><path style="opacity:0.757" fill="#6c6a6a" d="M 748.5,38.5 C 749.906,38.9731 750.573,39.9731 750.5,41.5C 749.094,41.0269 748.427,40.0269 748.5,38.5 Z"/></g>
<g><path style="opacity:0.6" fill="#747172" d="M 116.5,39.5 C 117.906,39.9731 118.573,40.9731 118.5,42.5C 117.094,42.0269 116.427,41.0269 116.5,39.5 Z"/></g>
<g><path style="opacity:0.573" fill="#767474" d="M 750.5,41.5 C 751.906,41.9731 752.573,42.9731 752.5,44.5C 751.094,44.0269 750.427,43.0269 750.5,41.5 Z"/></g>
<g><path style="opacity:0.58" fill="#726f70" d="M 126.5,58.5 C 127.906,58.9731 128.573,59.9731 128.5,61.5C 127.094,61.0269 126.427,60.0269 126.5,58.5 Z"/></g>
<g><path style="opacity:0.549" fill="#737172" d="M 137.5,79.5 C 138.906,79.9731 139.573,80.9731 139.5,82.5C 138.094,82.0269 137.427,81.0269 137.5,79.5 Z"/></g>
<g><path style="opacity:0.965" fill="#484546" d="M 274.5,116.5 C 274.829,102.656 274.496,88.9898 273.5,75.5C 273.312,73.8967 273.812,72.5634 275,71.5C 275.828,86.6723 275.661,101.672 274.5,116.5 Z"/></g>
<g><path style="opacity:0.588" fill="#727070" d="M 148.5,100.5 C 149.906,100.973 150.573,101.973 150.5,103.5C 149.094,103.027 148.427,102.027 148.5,100.5 Z"/></g>
<g><path style="opacity:0.525" fill="#7b7979" d="M 493.5,108.5 C 492.833,107.833 492.167,107.167 491.5,106.5C 491.369,105.761 491.536,105.094 492,104.5C 493.188,105.563 493.688,106.897 493.5,108.5 Z"/></g>
<g><path style="opacity:0.518" fill="#7b7879" d="M 1021.5,108.5 C 1020.83,107.833 1020.17,107.167 1019.5,106.5C 1019.37,105.761 1019.54,105.094 1020,104.5C 1021.19,105.563 1021.69,106.897 1021.5,108.5 Z"/></g>
<g><path style="opacity:0.561" fill="#737172" d="M 157.5,117.5 C 158.906,117.973 159.573,118.973 159.5,120.5C 158.094,120.027 157.427,119.027 157.5,117.5 Z"/></g>
<g><path style="opacity:0.533" fill="#757273" d="M 166.5,134.5 C 167.906,134.973 168.573,135.973 168.5,137.5C 167.094,137.027 166.427,136.027 166.5,134.5 Z"/></g>
<g><path style="opacity:0.576" fill="#737070" d="M 177.5,155.5 C 178.906,155.973 179.573,156.973 179.5,158.5C 178.094,158.027 177.427,157.027 177.5,155.5 Z"/></g>
<g><path style="opacity:0.529" fill="#757373" d="M 812.5,157.5 C 811.86,160.682 810.86,161.015 809.5,158.5C 810.609,158.443 811.609,158.11 812.5,157.5 Z"/></g>
<g><path style="opacity:0.341" fill="#838181" d="M 56.5,74.5 C 55.5009,139.998 55.1675,205.665 55.5,271.5C 54.3346,205.001 54.1679,138.335 55,71.5C 55.5133,72.5266 56.0133,73.5266 56.5,74.5 Z"/></g>
<g><path style="opacity:0.906" fill="#585555" d="M 817.5,187.5 C 816.853,218.391 817.52,249.057 819.5,279.5C 818.5,279.5 817.5,279.5 816.5,279.5C 816.169,248.662 816.502,217.995 817.5,187.5 Z"/></g>
<g><path style="opacity:0.557" fill="#737171" d="M 194.5,188.5 C 195.906,188.973 196.573,189.973 196.5,191.5C 195.094,191.027 194.427,190.027 194.5,188.5 Z"/></g>
<g><path style="opacity:0.937" fill="#4e4b4c" d="M 748.5,190.5 C 749.167,205.163 749.5,219.996 749.5,235C 749.499,250.182 748.833,265.015 747.5,279.5C 748.492,249.907 748.825,220.24 748.5,190.5 Z"/></g>
<g><path style="opacity:0.753" fill="#6c6a6a" d="M 452.5,199.5 C 465.316,200.833 478.483,201.499 492,201.5C 505.517,201.499 518.684,200.833 531.5,199.5C 532.404,200.209 532.737,201.209 532.5,202.5C 505.5,202.5 478.5,202.5 451.5,202.5C 451.263,201.209 451.596,200.209 452.5,199.5 Z"/></g>
<g><path style="opacity:0.753" fill="#6d6b6b" d="M 1059.5,198.5 C 1060.43,199.568 1060.77,200.901 1060.5,202.5C 1033.49,202.833 1006.49,202.5 979.5,201.5C 979.624,200.893 979.957,200.56 980.5,200.5C 1006.66,201.498 1032.99,201.831 1059.5,201.5C 1059.5,200.5 1059.5,199.5 1059.5,198.5 Z"/></g>
<g><path style="opacity:0.851" fill="#6b6869" d="M 203.5,205.5 C 204.167,205.5 204.833,205.5 205.5,205.5C 204.833,208.167 204.167,208.167 203.5,205.5 Z"/></g>
<g><path style="opacity:0.863" fill="#585555" d="M 446.5,215.5 C 461.663,214.833 476.996,214.5 492.5,214.5C 508.182,214.501 523.515,215.167 538.5,216.5C 507.907,215.508 477.24,215.175 446.5,215.5 Z"/></g>
<g><path style="opacity:0.905" fill="#545051" d="M 1065.5,215.5 C 1035.09,215.175 1004.76,215.508 974.5,216.5C 989.318,215.167 1004.48,214.501 1020,214.5C 1035.34,214.5 1050.5,214.833 1065.5,215.5 Z"/></g>
<g><path style="opacity:0.745" fill="#7d7b7c" d="M 38.5,269.5 C 38.5,270.833 37.8333,271.5 36.5,271.5C 36.8333,270.5 37.5,269.833 38.5,269.5 Z"/></g>
<g><path style="opacity:0.008" fill="#7f7c7d" d="M 1091.5,271.5 C 1092.91,271.973 1093.57,272.973 1093.5,274.5C 1092.09,274.027 1091.43,273.027 1091.5,271.5 Z"/></g>
<g><path style="opacity:0.984" fill="#605d5e" d="M 935.5,271.5 C 935.715,273.179 935.048,274.179 933.5,274.5C 933.932,273.29 934.599,272.29 935.5,271.5 Z"/></g>
<g><path style="opacity:0.988" fill="#5f5b5c" d="M 406.5,272.5 C 406.715,274.179 406.048,275.179 404.5,275.5C 404.932,274.29 405.599,273.29 406.5,272.5 Z"/></g>
<g><path style="opacity:1" fill="#585555" d="M 273.5,276.5 C 269.837,278.416 265.837,279.416 261.5,279.5C 265.239,277.898 269.239,276.898 273.5,276.5 Z"/></g>
<g><path style="opacity:0.024" fill="#747272" d="M 1095.5,276.5 C 1098.17,278.5 1100.5,280.833 1102.5,283.5C 1099.17,282.167 1096.83,279.833 1095.5,276.5 Z"/></g>
<g><path style="opacity:0.875" fill="#757273" d="M 1167.5,278.5 C 1168.5,278.833 1169.17,279.5 1169.5,280.5C 1168.17,280.5 1167.5,279.833 1167.5,278.5 Z"/></g>
<g><path style="opacity:1" fill="#585556" d="M 747.5,279.5 C 744.781,280.913 741.781,281.58 738.5,281.5C 741.219,280.087 744.219,279.42 747.5,279.5 Z"/></g>
<g><path style="opacity:0.976" fill="#636061" d="M 11.5,280.5 C 11.0269,281.906 10.0269,282.573 8.5,282.5C 8.97306,281.094 9.97306,280.427 11.5,280.5 Z"/></g>
<g><path style="opacity:0.988" fill="#5f5c5c" d="M 571.5,281.5 C 573.404,281.738 574.738,282.738 575.5,284.5C 573.596,284.262 572.262,283.262 571.5,281.5 Z"/></g>
<g><path style="opacity:0.467" fill="#747172" d="M 83.5,281.5 C 85.0265,282.492 85.6932,283.992 85.5,286C 85.4857,287.385 85.1524,288.551 84.5,289.5C 84.5987,286.763 84.2653,284.096 83.5,281.5 Z"/></g>
<g><path style="opacity:1" fill="#585455" d="M 1102.5,283.5 C 1104.4,283.738 1105.74,284.738 1106.5,286.5C 1104.6,286.262 1103.26,285.262 1102.5,283.5 Z"/></g>
<g><path style="opacity:0.863" fill="#6d6a6b" d="M 253.5,281.5 C 251.832,283.479 251.166,285.812 251.5,288.5C 250.378,286.712 250.211,284.712 251,282.5C 251.671,281.748 252.504,281.414 253.5,281.5 Z"/></g>
<g><path style="opacity:0.957" fill="#5e5b5b" d="M 575.5,284.5 C 577.404,284.738 578.738,285.738 579.5,287.5C 577.596,287.262 576.262,286.262 575.5,284.5 Z"/></g>
<g><path style="opacity:0.925" fill="#575455" d="M 839.5,284.5 C 840.906,284.973 841.573,285.973 841.5,287.5C 840.094,287.027 839.427,286.027 839.5,284.5 Z"/></g>
<g><path style="opacity:0.682" fill="#777575" d="M 377.5,285.5 C 376.833,286.833 375.833,287.833 374.5,288.5C 374.5,286.5 375.5,285.5 377.5,285.5 Z"/></g>
<g><path style="opacity:0.725" fill="#6c696a" d="M 1106.5,286.5 C 1108.03,286.427 1109.03,287.094 1109.5,288.5C 1107.97,288.573 1106.97,287.906 1106.5,286.5 Z"/></g>
<g><path style="opacity:0.42" fill="#7a7878" d="M 977.5,286.5 C 978.947,287.134 979.613,288.301 979.5,290C 979.472,291.07 979.139,291.903 978.5,292.5C 978.483,290.435 978.15,288.435 977.5,286.5 Z"/></g>
<g><path style="opacity:0.078" fill="#757373" d="M 251.5,288.5 C 252.5,288.833 253.167,289.5 253.5,290.5C 252.167,290.5 251.5,289.833 251.5,288.5 Z"/></g>
<g><path style="opacity:0.008" fill="#7d7b7b" d="M 725.5,290.5 C 726.5,290.833 727.167,291.5 727.5,292.5C 726.167,292.5 725.5,291.833 725.5,290.5 Z"/></g>
<g><path style="opacity:0.047" fill="#787676" d="M 660.5,292.5 C 660.5,293.833 659.833,294.5 658.5,294.5C 658.833,293.5 659.5,292.833 660.5,292.5 Z"/></g>
<g><path style="opacity:0.557" fill="#7c7a7a" d="M 902.5,292.5 C 903.833,293.167 904.833,294.167 905.5,295.5C 903.5,295.5 902.5,294.5 902.5,292.5 Z"/></g>
<g><path style="opacity:0.686" fill="#747272" d="M 171.5,293.5 C 174.215,295.123 177.215,295.79 180.5,295.5C 178.372,296.629 176.039,296.796 173.5,296C 172.619,295.292 171.953,294.458 171.5,293.5 Z"/></g>
<g><path style="opacity:0.234" fill="#898787" d="M 1004.5,333.5 C 1005.17,341.5 1005.83,349.5 1006.5,357.5C 1006.22,358.289 1005.72,358.956 1005,359.5C 1004.5,350.84 1004.33,342.173 1004.5,333.5 Z"/></g>
<g><path style="opacity:0.439" fill="#7d7b7b" d="M 994.5,333.5 C 992.393,334.468 990.059,334.802 987.5,334.5C 987.5,336.5 987.5,338.5 987.5,340.5C 986.532,338.393 986.198,336.059 986.5,333.5C 989.167,333.5 991.833,333.5 994.5,333.5 Z"/></g>
<g><path style="opacity:1" fill="#292526" d="M 994.5,333.5 C 997.833,333.5 1001.17,333.5 1004.5,333.5C 1004.33,342.173 1004.5,350.84 1005,359.5C 1005.72,358.956 1006.22,358.289 1006.5,357.5C 1013.85,351.887 1020.85,352.22 1027.5,358.5C 1027.43,360.027 1028.09,361.027 1029.5,361.5C 1031.02,372.385 1032.02,383.385 1032.5,394.5C 1033.18,394.863 1033.85,395.196 1034.5,395.5C 1035.34,397.379 1035.67,399.379 1035.5,401.5C 1028.5,401.5 1021.5,401.5 1014.5,401.5C 1014.33,399.379 1014.66,397.379 1015.5,395.5C 1016.46,395.047 1017.29,394.381 1018,393.5C 1018.67,385.167 1018.67,376.833 1018,368.5C 1014.32,363.416 1010.32,363.416 1006,368.5C 1004.91,377.76 1005.41,386.76 1007.5,395.5C 1009.07,397.114 1009.74,399.114 1009.5,401.5C 1002.5,401.5 995.5,401.5 988.5,401.5C 988.325,399.379 988.659,397.379 989.5,395.5C 991.179,395.715 992.179,395.048 992.5,393.5C 993.166,385.007 993.5,376.34 993.5,367.5C 993.498,358.473 992.831,349.807 991.5,341.5C 990.167,341.167 988.833,340.833 987.5,340.5C 987.5,338.5 987.5,336.5 987.5,334.5C 990.059,334.802 992.393,334.468 994.5,333.5 Z"/></g>
<g><path style="opacity:0.984" fill="#4b4849" d="M 408.5,337.5 C 397.5,337.5 386.5,337.5 375.5,337.5C 375.5,339.167 375.5,340.833 375.5,342.5C 374.539,340.735 374.205,338.735 374.5,336.5C 386.012,336.172 397.346,336.505 408.5,337.5 Z"/></g>
<g><path style="opacity:1" fill="#282425" d="M 408.5,337.5 C 412.684,337.592 416.017,339.259 418.5,342.5C 418.427,344.027 419.094,345.027 420.5,345.5C 423.456,353.26 422.956,360.927 419,368.5C 414.883,373.142 409.716,375.475 403.5,375.5C 399.833,375.5 396.167,375.5 392.5,375.5C 392.178,381.358 392.511,387.025 393.5,392.5C 394.526,393.853 395.859,394.853 397.5,395.5C 398.341,397.379 398.675,399.379 398.5,401.5C 390.833,401.5 383.167,401.5 375.5,401.5C 375.325,399.379 375.659,397.379 376.5,395.5C 378.113,395.056 379.28,394.056 380,392.5C 380.5,377.17 380.667,361.837 380.5,346.5C 380.715,344.821 380.048,343.821 378.5,343.5C 377.209,343.737 376.209,343.404 375.5,342.5C 375.5,340.833 375.5,339.167 375.5,337.5C 386.5,337.5 397.5,337.5 408.5,337.5 Z M 396.5,344.5 C 407.224,345.243 411.057,350.909 408,361.5C 406.293,364.59 403.793,366.59 400.5,367.5C 398.167,367.5 395.833,367.5 393.5,367.5C 393.5,360.167 393.5,352.833 393.5,345.5C 394.791,345.737 395.791,345.404 396.5,344.5 Z"/></g>
<g><path style="opacity:0.612" fill="#7f7c7d" d="M 443.5,337.5 C 443.167,337.5 442.833,337.5 442.5,337.5C 438.833,337.5 435.167,337.5 431.5,337.5C 431.5,341.5 431.5,345.5 431.5,349.5C 431.5,349.833 431.5,350.167 431.5,350.5C 430.514,346.03 430.181,341.363 430.5,336.5C 435.032,336.182 439.366,336.515 443.5,337.5 Z"/></g>
<g><path style="opacity:1" fill="#221f1f" d="M 442.5,337.5 C 442.5,341.5 442.5,345.5 442.5,349.5C 438.833,349.5 435.167,349.5 431.5,349.5C 431.5,345.5 431.5,341.5 431.5,337.5C 435.167,337.5 438.833,337.5 442.5,337.5 Z"/></g>
<g><path style="opacity:0.612" fill="#7f7c7d" d="M 635.5,337.5 C 635.167,337.5 634.833,337.5 634.5,337.5C 630.833,337.5 627.167,337.5 623.5,337.5C 623.5,341.5 623.5,345.5 623.5,349.5C 623.5,349.833 623.5,350.167 623.5,350.5C 622.514,346.03 622.181,341.363 622.5,336.5C 627.032,336.182 631.366,336.515 635.5,337.5 Z"/></g>
<g><path style="opacity:1" fill="#221f1f" d="M 634.5,337.5 C 634.5,341.5 634.5,345.5 634.5,349.5C 630.833,349.5 627.167,349.5 623.5,349.5C 623.5,345.5 623.5,341.5 623.5,337.5C 627.167,337.5 630.833,337.5 634.5,337.5 Z"/></g>
<g><path style="opacity:1" fill="#282425" d="M 820.5,345.5 C 821.275,350.797 821.608,356.13 821.5,361.5C 820.095,368.74 815.762,373.24 808.5,375C 806.527,375.495 804.527,375.662 802.5,375.5C 799.167,375.5 795.833,375.5 792.5,375.5C 792.178,381.358 792.511,387.025 793.5,392.5C 794.436,393.974 795.77,394.974 797.5,395.5C 798.341,397.379 798.675,399.379 798.5,401.5C 790.833,401.5 783.167,401.5 775.5,401.5C 775.325,399.379 775.659,397.379 776.5,395.5C 778.417,394.884 779.584,393.55 780,391.5C 780.5,376.837 780.667,362.17 780.5,347.5C 780.843,345.517 780.176,344.183 778.5,343.5C 777.178,343.67 776.011,343.337 775,342.5C 774.505,340.527 774.338,338.527 774.5,336.5C 785.838,336.333 797.172,336.5 808.5,337C 814.147,337.645 818.147,340.478 820.5,345.5 Z M 796.5,344.5 C 807.224,345.243 811.057,350.909 808,361.5C 806.293,364.59 803.793,366.59 800.5,367.5C 798.167,367.5 795.833,367.5 793.5,367.5C 793.5,360.167 793.5,352.833 793.5,345.5C 794.791,345.737 795.791,345.404 796.5,344.5 Z"/></g>
<g><path style="opacity:0.694" fill="#726f70" d="M 418.5,342.5 C 419.906,342.973 420.573,343.973 420.5,345.5C 419.094,345.027 418.427,344.027 418.5,342.5 Z"/></g>
<g><path style="opacity:0.016" fill="#817f7f" d="M 378.5,343.5 C 380.048,343.821 380.715,344.821 380.5,346.5C 379.599,345.71 378.932,344.71 378.5,343.5 Z"/></g>
<g><path style="opacity:0.753" fill="#6b6969" d="M 396.5,344.5 C 395.791,345.404 394.791,345.737 393.5,345.5C 393.5,352.833 393.5,360.167 393.5,367.5C 395.833,367.5 398.167,367.5 400.5,367.5C 398.052,368.473 395.385,368.806 392.5,368.5C 392.5,360.5 392.5,352.5 392.5,344.5C 393.833,344.5 395.167,344.5 396.5,344.5 Z"/></g>
<g><path style="opacity:0.165" fill="#7f7c7d" d="M 778.5,343.5 C 780.176,344.183 780.843,345.517 780.5,347.5C 779.655,346.329 778.989,344.995 778.5,343.5 Z"/></g>
<g><path style="opacity:0.612" fill="#737071" d="M 796.5,344.5 C 795.791,345.404 794.791,345.737 793.5,345.5C 793.5,352.833 793.5,360.167 793.5,367.5C 795.833,367.5 798.167,367.5 800.5,367.5C 798.052,368.473 795.385,368.806 792.5,368.5C 792.5,360.5 792.5,352.5 792.5,344.5C 793.833,344.5 795.167,344.5 796.5,344.5 Z"/></g>
<g><path style="opacity:0.753" fill="#696767" d="M 991.5,341.5 C 992.831,349.807 993.498,358.473 993.5,367.5C 993.5,376.34 993.166,385.007 992.5,393.5C 992.819,376.09 992.485,358.756 991.5,341.5 Z"/></g>
<g><path style="opacity:0.753" fill="#626060" d="M 442.5,337.5 C 442.833,337.5 443.167,337.5 443.5,337.5C 443.5,341.833 443.5,346.167 443.5,350.5C 439.5,350.5 435.5,350.5 431.5,350.5C 431.5,350.167 431.5,349.833 431.5,349.5C 435.167,349.5 438.833,349.5 442.5,349.5C 442.5,345.5 442.5,341.5 442.5,337.5 Z"/></g>
<g><path style="opacity:0.753" fill="#626060" d="M 634.5,337.5 C 634.833,337.5 635.167,337.5 635.5,337.5C 635.5,341.833 635.5,346.167 635.5,350.5C 631.5,350.5 627.5,350.5 623.5,350.5C 623.5,350.167 623.5,349.833 623.5,349.5C 627.167,349.5 630.833,349.5 634.5,349.5C 634.5,345.5 634.5,341.5 634.5,337.5 Z"/></g>
<g><path style="opacity:0.753" fill="#6c6969" d="M 830.5,336.5 C 834.833,336.5 839.167,336.5 843.5,336.5C 843.5,341.167 843.5,345.833 843.5,350.5C 839.167,350.5 834.833,350.5 830.5,350.5C 830.5,345.833 830.5,341.167 830.5,336.5 Z"/></g>
<g><path style="opacity:1" fill="#221f1f" d="M 831.5,337.5 C 835.167,337.5 838.833,337.5 842.5,337.5C 842.5,341.5 842.5,345.5 842.5,349.5C 838.833,349.5 835.167,349.5 831.5,349.5C 831.5,345.5 831.5,341.5 831.5,337.5 Z"/></g>
<g><path style="opacity:0.753" fill="#6c6a6a" d="M 1126.5,336.5 C 1130.83,336.5 1135.17,336.5 1139.5,336.5C 1139.5,341.167 1139.5,345.833 1139.5,350.5C 1135.17,350.5 1130.83,350.5 1126.5,350.5C 1126.5,345.833 1126.5,341.167 1126.5,336.5 Z"/></g>
<g><path style="opacity:1" fill="#221f1f" d="M 1127.5,337.5 C 1131.17,337.5 1134.83,337.5 1138.5,337.5C 1138.5,341.5 1138.5,345.5 1138.5,349.5C 1134.83,349.5 1131.17,349.5 1127.5,349.5C 1127.5,345.5 1127.5,341.5 1127.5,337.5 Z"/></g>
<g><path style="opacity:0.753" fill="#706e6e" d="M 451.5,355.5 C 464.323,354.505 477.323,354.171 490.5,354.5C 490.795,356.735 490.461,358.735 489.5,360.5C 489.5,358.833 489.5,357.167 489.5,355.5C 476.833,355.5 464.167,355.5 451.5,355.5 Z"/></g>
<g><path style="opacity:0.753" fill="#706e6e" d="M 530.5,361.5 C 530.5,359.5 530.5,357.5 530.5,355.5C 518.167,355.5 505.833,355.5 493.5,355.5C 493.5,360.5 493.5,365.5 493.5,370.5C 493.5,370.833 493.5,371.167 493.5,371.5C 492.511,366.025 492.178,360.358 492.5,354.5C 505.5,354.5 518.5,354.5 531.5,354.5C 531.802,357.059 531.468,359.393 530.5,361.5 Z"/></g>
<g><path style="opacity:1" fill="#2a2627" d="M 569.5,358.5 C 569.427,360.027 570.094,361.027 571.5,361.5C 572.309,371.423 572.809,381.423 573,391.5C 573.48,393.133 574.313,394.466 575.5,395.5C 577.075,397.114 577.741,399.114 577.5,401.5C 572.167,401.5 566.833,401.5 561.5,401.5C 562.031,397.288 561.031,396.621 558.5,399.5C 557.41,400.857 556.076,401.857 554.5,402.5C 550.5,402.5 546.5,402.5 542.5,402.5C 541.833,401.833 541.167,401.167 540.5,400.5C 540.027,399.094 539.027,398.427 537.5,398.5C 535.273,396.191 534.273,393.358 534.5,390C 534.336,387.456 535.003,385.29 536.5,383.5C 537.906,383.027 538.573,382.027 538.5,380.5C 540.027,380.573 541.027,379.906 541.5,378.5C 547.281,375.203 553.615,373.537 560.5,373.5C 560.425,370.794 560.092,368.127 559.5,365.5C 559.5,363.5 558.5,362.5 556.5,362.5C 554.379,362.325 552.379,362.659 550.5,363.5C 549.167,363.5 548.5,364.167 548.5,365.5C 548.167,366.167 547.833,366.833 547.5,367.5C 544.512,369.273 541.179,369.94 537.5,369.5C 537.253,366.061 537.586,362.728 538.5,359.5C 546.804,354.208 555.804,352.708 565.5,355C 567.324,355.66 568.657,356.827 569.5,358.5 Z M 551.5,393.5 C 550.329,392.655 548.995,391.989 547.5,391.5C 547.5,389.833 547.5,388.167 547.5,386.5C 548.833,385.833 549.833,384.833 550.5,383.5C 553.748,383.099 556.915,382.432 560,381.5C 561.294,388.379 558.461,392.379 551.5,393.5 Z"/></g>
<g><path style="opacity:1" fill="#2a2627" d="M 616.5,354.5 C 616.5,359.167 616.5,363.833 616.5,368.5C 613.391,368.736 610.391,368.403 607.5,367.5C 606.242,364.636 604.242,363.97 601.5,365.5C 600.167,365.5 599.5,366.167 599.5,367.5C 599.013,368.473 598.513,369.473 598,370.5C 597.5,378.159 597.334,385.826 597.5,393.5C 597.821,395.048 598.821,395.715 600.5,395.5C 602.075,397.114 602.741,399.114 602.5,401.5C 595.167,401.5 587.833,401.5 580.5,401.5C 579.971,398.396 580.971,396.063 583.5,394.5C 584.833,383.833 584.833,373.167 583.5,362.5C 582.817,362.137 582.15,361.804 581.5,361.5C 580.659,359.621 580.325,357.621 580.5,355.5C 582.735,355.795 584.735,355.461 586.5,354.5C 589.833,354.5 593.167,354.5 596.5,354.5C 596.215,356.288 596.548,357.955 597.5,359.5C 598.522,359.145 599.189,358.478 599.5,357.5C 601.027,357.573 602.027,356.906 602.5,355.5C 606.937,353.367 611.603,353.034 616.5,354.5 Z"/></g>
<g><path style="opacity:0.119" fill="#797777" d="M 616.5,354.5 C 620.5,354.5 624.5,354.5 628.5,354.5C 625.375,355.479 622.042,355.813 618.5,355.5C 618.5,357.5 618.5,359.5 618.5,361.5C 617.527,363.948 617.194,366.615 617.5,369.5C 613.671,370.069 610.337,369.402 607.5,367.5C 610.391,368.403 613.391,368.736 616.5,368.5C 616.5,363.833 616.5,359.167 616.5,354.5 Z"/></g>
<g><path style="opacity:1" fill="#2b2728" d="M 675.5,356.5 C 676.167,357.833 677.167,358.833 678.5,359.5C 679.927,361.148 680.76,363.148 681,365.5C 681.5,374.827 681.666,384.161 681.5,393.5C 681.821,395.048 682.821,395.715 684.5,395.5C 685.341,397.379 685.675,399.379 685.5,401.5C 680.5,401.5 675.5,401.5 670.5,401.5C 670.762,400.022 670.429,398.689 669.5,397.5C 668.893,397.624 668.56,397.957 668.5,398.5C 667.016,400.074 665.349,401.407 663.5,402.5C 659.167,402.5 654.833,402.5 650.5,402.5C 644.067,398.535 641.733,392.868 643.5,385.5C 644.906,385.027 645.573,384.027 645.5,382.5C 646.167,381.167 647.167,380.167 648.5,379.5C 650.027,379.573 651.027,378.906 651.5,377.5C 652.209,376.596 653.209,376.263 654.5,376.5C 657.428,376.435 660.095,375.768 662.5,374.5C 664.833,374.5 667.167,374.5 669.5,374.5C 669.806,371.615 669.473,368.948 668.5,366.5C 663.281,360.884 658.948,361.551 655.5,368.5C 652.272,369.414 648.939,369.747 645.5,369.5C 645.18,366.102 645.513,362.768 646.5,359.5C 655.294,354.306 664.628,352.806 674.5,355C 675.056,355.383 675.389,355.883 675.5,356.5 Z M 668.5,388.5 C 666.833,389.5 665.5,390.833 664.5,392.5C 663.07,392.421 661.736,392.754 660.5,393.5C 654.677,391.559 654.011,388.392 658.5,384C 661.687,383.111 664.853,382.278 668,381.5C 668.497,383.81 668.663,386.143 668.5,388.5 Z"/></g>
<g><path style="opacity:1" fill="#2a2627" d="M 742.5,357.5 C 743.167,358.833 744.167,359.833 745.5,360.5C 745.427,362.027 746.094,363.027 747.5,363.5C 749.04,365.838 749.706,368.505 749.5,371.5C 749.5,374.167 749.5,376.833 749.5,379.5C 740.167,379.5 730.833,379.5 721.5,379.5C 721.205,381.735 721.539,383.735 722.5,385.5C 723.404,386.209 723.737,387.209 723.5,388.5C 723.5,390.5 724.5,391.5 726.5,391.5C 730.484,392.743 734.484,392.743 738.5,391.5C 740.833,390.167 743.167,388.833 745.5,387.5C 747.296,388.793 748.963,390.293 750.5,392C 746.846,396.502 742.513,400.002 737.5,402.5C 732.5,402.5 727.5,402.5 722.5,402.5C 721.5,401.833 720.5,401.167 719.5,400.5C 718.738,398.738 717.404,397.738 715.5,397.5C 712.676,395.2 710.843,392.2 710,388.5C 709.333,382.5 709.333,376.5 710,370.5C 710.139,367.555 711.306,365.221 713.5,363.5C 714.906,363.027 715.573,362.027 715.5,360.5C 717.749,359.92 719.415,358.587 720.5,356.5C 727.267,352.715 734.267,352.548 741.5,356C 742.056,356.383 742.389,356.883 742.5,357.5 Z M 736.5,367.5 C 736.5,368.833 736.5,370.167 736.5,371.5C 731.637,371.819 726.97,371.486 722.5,370.5C 723.441,368.95 724.107,367.284 724.5,365.5C 725.5,365.167 726.167,364.5 726.5,363.5C 731.373,361.296 734.706,362.629 736.5,367.5 Z"/></g>
<g><path style="opacity:1" fill="#2c292a" d="M 886.5,355.5 C 888.334,359.514 889.001,363.847 888.5,368.5C 885.391,368.736 882.391,368.403 879.5,367.5C 876.725,361.731 872.891,361.064 868,365.5C 865.267,372.989 864.767,380.656 866.5,388.5C 866.427,390.027 867.094,391.027 868.5,391.5C 872.167,392.833 875.833,392.833 879.5,391.5C 881.027,391.573 882.027,390.906 882.5,389.5C 883.375,387.194 884.708,386.527 886.5,387.5C 886.427,389.027 887.094,390.027 888.5,390.5C 889.167,390.5 889.5,390.833 889.5,391.5C 888.833,393.167 888.167,394.833 887.5,396.5C 885.973,396.427 884.973,397.094 884.5,398.5C 882.81,400.342 880.81,401.675 878.5,402.5C 873.833,402.5 869.167,402.5 864.5,402.5C 855.667,397.347 851.333,389.514 851.5,379C 851.367,371.204 854.034,364.704 859.5,359.5C 861.027,359.573 862.027,358.906 862.5,357.5C 864.027,357.573 865.027,356.906 865.5,355.5C 872.482,352.978 879.482,352.978 886.5,355.5 Z"/></g>
<g><path style="opacity:1" fill="#2b2728" d="M 934.5,401.5 C 929.167,401.5 923.833,401.5 918.5,401.5C 919.031,397.288 918.031,396.621 915.5,399.5C 914.167,400.5 912.833,401.5 911.5,402.5C 907.167,402.5 902.833,402.5 898.5,402.5C 898.5,402.167 898.5,401.833 898.5,401.5C 898.027,400.094 897.027,399.427 895.5,399.5C 893.39,398.547 892.223,396.881 892,394.5C 891.333,391.5 891.333,388.5 892,385.5C 892.278,384.584 892.778,383.918 893.5,383.5C 894.906,383.027 895.573,382.027 895.5,380.5C 897.027,380.573 898.027,379.906 898.5,378.5C 904.235,375.033 910.569,373.367 917.5,373.5C 917.167,370.833 916.833,368.167 916.5,365.5C 916.5,364.167 915.833,363.5 914.5,363.5C 908.644,361.593 904.978,363.593 903.5,369.5C 900.5,369.5 897.5,369.5 894.5,369.5C 894.253,366.061 894.586,362.728 895.5,359.5C 903.804,354.208 912.804,352.708 922.5,355C 925.728,356.563 927.895,359.063 929,362.5C 929.333,372.5 929.667,382.5 930,392.5C 930.7,394.032 931.866,395.032 933.5,395.5C 934.466,397.396 934.799,399.396 934.5,401.5 Z M 908.5,393.5 C 907.329,392.655 905.995,391.989 904.5,391.5C 903.592,389.311 903.925,387.144 905.5,385C 909.22,383.356 913.053,382.19 917,381.5C 917.85,388.139 915.017,392.139 908.5,393.5 Z"/></g>
<g><path style="opacity:1" fill="#2b2728" d="M 980.5,393.5 C 980.821,395.048 981.821,395.715 983.5,395.5C 984.341,397.379 984.675,399.379 984.5,401.5C 977.5,401.5 970.5,401.5 963.5,401.5C 963.325,399.379 963.659,397.379 964.5,395.5C 965.15,395.196 965.817,394.863 966.5,394.5C 967.665,385.518 967.832,376.518 967,367.5C 965.334,364.621 962.834,363.788 959.5,365C 957.43,365.948 955.93,367.448 955,369.5C 954.333,377.5 954.333,385.5 955,393.5C 955.708,394.381 956.542,395.047 957.5,395.5C 958.341,397.379 958.675,399.379 958.5,401.5C 951.5,401.5 944.5,401.5 937.5,401.5C 937.325,399.379 937.659,397.379 938.5,395.5C 939.15,395.196 939.817,394.863 940.5,394.5C 941.833,383.833 941.833,373.167 940.5,362.5C 939.817,362.137 939.15,361.804 938.5,361.5C 937.659,359.621 937.325,357.621 937.5,355.5C 941.042,355.813 944.375,355.479 947.5,354.5C 949.5,354.5 951.5,354.5 953.5,354.5C 953.34,356.199 953.506,357.866 954,359.5C 954.995,358.934 955.828,358.267 956.5,357.5C 958.027,357.573 959.027,356.906 959.5,355.5C 969.842,351.454 976.675,354.788 980,365.5C 980.5,374.827 980.666,384.161 980.5,393.5 Z"/></g>
<g><path style="opacity:1" fill="#2b2829" d="M 1081.5,401.5 C 1076.17,401.5 1070.83,401.5 1065.5,401.5C 1065.76,400.022 1065.43,398.689 1064.5,397.5C 1063.48,397.855 1062.81,398.522 1062.5,399.5C 1061.17,400.5 1059.83,401.5 1058.5,402.5C 1054.17,402.5 1049.83,402.5 1045.5,402.5C 1045.5,402.167 1045.5,401.833 1045.5,401.5C 1045.03,400.094 1044.03,399.427 1042.5,399.5C 1040.83,398.657 1039.66,397.324 1039,395.5C 1038.19,391.642 1038.36,387.976 1039.5,384.5C 1040.91,384.027 1041.57,383.027 1041.5,381.5C 1047.93,375.687 1055.6,373.02 1064.5,373.5C 1065.09,364.908 1061.43,361.741 1053.5,364C 1052.39,365.876 1051.39,367.709 1050.5,369.5C 1047.5,369.5 1044.5,369.5 1041.5,369.5C 1041.25,366.061 1041.59,362.728 1042.5,359.5C 1050.8,354.208 1059.8,352.708 1069.5,355C 1073.17,356.668 1075.33,359.501 1076,363.5C 1076.33,373.167 1076.67,382.833 1077,392.5C 1077.7,394.032 1078.87,395.032 1080.5,395.5C 1081.47,397.396 1081.8,399.396 1081.5,401.5 Z M 1054.5,393.5 C 1053.2,392.512 1051.87,391.512 1050.5,390.5C 1050.47,388.418 1051.14,386.584 1052.5,385C 1055.96,383.2 1059.63,382.034 1063.5,381.5C 1064.9,388.666 1061.9,392.666 1054.5,393.5 Z"/></g>
<g><path style="opacity:0.794" fill="#5e5b5c" d="M 1091.5,354.5 C 1089.39,355.468 1087.06,355.802 1084.5,355.5C 1084.33,357.621 1084.66,359.621 1085.5,361.5C 1083.66,359.721 1082.99,357.388 1083.5,354.5C 1086.17,354.5 1088.83,354.5 1091.5,354.5 Z"/></g>
<g><path style="opacity:1" fill="#2b2728" d="M 1110.5,366.5 C 1110.04,363.691 1108.71,363.024 1106.5,364.5C 1104.56,365.674 1103.06,367.341 1102,369.5C 1101.5,377.493 1101.33,385.493 1101.5,393.5C 1101.82,395.048 1102.82,395.715 1104.5,395.5C 1106.31,396.918 1106.97,398.918 1106.5,401.5C 1099.17,401.5 1091.83,401.5 1084.5,401.5C 1084.33,399.379 1084.66,397.379 1085.5,395.5C 1085.83,395.5 1086.17,395.5 1086.5,395.5C 1087.83,395.5 1088.5,394.833 1088.5,393.5C 1088.83,383.145 1088.5,372.812 1087.5,362.5C 1086.82,362.137 1086.15,361.804 1085.5,361.5C 1084.66,359.621 1084.33,357.621 1084.5,355.5C 1087.06,355.802 1089.39,355.468 1091.5,354.5C 1094.5,354.5 1097.5,354.5 1100.5,354.5C 1099.76,360.351 1101.09,361.017 1104.5,356.5C 1109.12,353.63 1114.12,352.964 1119.5,354.5C 1120.49,359.456 1120.83,364.456 1120.5,369.5C 1117.43,369.817 1114.43,369.484 1111.5,368.5C 1111.14,367.817 1110.8,367.15 1110.5,366.5 Z"/></g>
<g><path style="opacity:0.922" fill="#575354" d="M 1130.5,354.5 C 1128.05,355.473 1125.39,355.806 1122.5,355.5C 1122.33,357.621 1122.66,359.621 1123.5,361.5C 1121.66,359.721 1120.99,357.388 1121.5,354.5C 1124.5,354.5 1127.5,354.5 1130.5,354.5 Z"/></g>
<g><path style="opacity:1" fill="#2d292a" d="M 1188.5,395.5 C 1189.34,397.379 1189.67,399.379 1189.5,401.5C 1184.17,401.5 1178.83,401.5 1173.5,401.5C 1173.65,400.448 1173.48,399.448 1173,398.5C 1170.99,400.248 1168.82,401.582 1166.5,402.5C 1162.5,402.5 1158.5,402.5 1154.5,402.5C 1153.83,401.833 1153.17,401.167 1152.5,400.5C 1151.5,398.833 1150.17,397.5 1148.5,396.5C 1146.04,392.384 1145.88,388.05 1148,383.5C 1148.38,382.944 1148.88,382.611 1149.5,382.5C 1150.83,381.833 1151.83,380.833 1152.5,379.5C 1153.75,377.864 1155.42,376.697 1157.5,376C 1162.41,374.584 1167.41,373.751 1172.5,373.5C 1172.65,370.393 1172.15,367.393 1171,364.5C 1166.14,361.511 1162.31,362.511 1159.5,367.5C 1156.51,369.273 1153.18,369.94 1149.5,369.5C 1149.5,366.5 1149.5,363.5 1149.5,360.5C 1158.72,353.861 1168.72,352.361 1179.5,356C 1181.38,357.543 1182.88,359.376 1184,361.5C 1185.02,372.476 1185.85,383.476 1186.5,394.5C 1187.18,394.863 1187.85,395.196 1188.5,395.5 Z M 1171.5,381.5 C 1173.42,387.956 1170.92,391.956 1164,393.5C 1158.62,391.272 1158.12,388.106 1162.5,384C 1165.63,383.159 1168.63,382.325 1171.5,381.5 Z"/></g>
<g><path style="opacity:0.863" fill="#5f5d5d" d="M 436.5,354.5 C 433.375,355.479 430.042,355.813 426.5,355.5C 426.325,357.621 426.659,359.621 427.5,361.5C 425.656,359.721 424.99,357.388 425.5,354.5C 429.167,354.5 432.833,354.5 436.5,354.5 Z"/></g>
<g><path style="opacity:1" fill="#2b2728" d="M 436.5,354.5 C 438.833,354.5 441.167,354.5 443.5,354.5C 443.5,367.5 443.5,380.5 443.5,393.5C 443.821,395.048 444.821,395.715 446.5,395.5C 447.341,397.379 447.675,399.379 447.5,401.5C 440.5,401.5 433.5,401.5 426.5,401.5C 425.971,398.396 426.971,396.063 429.5,394.5C 430.833,383.833 430.833,373.167 429.5,362.5C 428.817,362.137 428.15,361.804 427.5,361.5C 426.659,359.621 426.325,357.621 426.5,355.5C 430.042,355.813 433.375,355.479 436.5,354.5 Z"/></g>
<g><path style="opacity:1" fill="#272324" d="M 451.5,355.5 C 464.167,355.5 476.833,355.5 489.5,355.5C 489.5,357.167 489.5,358.833 489.5,360.5C 482.858,371.13 475.858,381.463 468.5,391.5C 467.733,392.172 467.066,393.005 466.5,394C 470.358,394.81 474.024,394.643 477.5,393.5C 479.342,391.81 480.675,389.81 481.5,387.5C 483.8,385.798 486.467,385.132 489.5,385.5C 489.5,390.833 489.5,396.167 489.5,401.5C 476.833,401.5 464.167,401.5 451.5,401.5C 451.5,399.833 451.5,398.167 451.5,396.5C 452.906,396.027 453.573,395.027 453.5,393.5C 454.906,393.027 455.573,392.027 455.5,390.5C 456.906,390.027 457.573,389.027 457.5,387.5C 458.906,387.027 459.573,386.027 459.5,384.5C 460.906,384.027 461.573,383.027 461.5,381.5C 462.906,381.027 463.573,380.027 463.5,378.5C 464.906,378.027 465.573,377.027 465.5,375.5C 466.906,375.027 467.573,374.027 467.5,372.5C 468.906,372.027 469.573,371.027 469.5,369.5C 470.906,369.027 471.573,368.027 471.5,366.5C 471.328,365.508 471.662,364.842 472.5,364.5C 473.289,364.217 473.956,363.717 474.5,363C 470.5,362.333 466.5,362.333 462.5,363C 461.748,363.671 461.414,364.504 461.5,365.5C 460.326,370.672 456.993,372.672 451.5,371.5C 451.5,366.167 451.5,360.833 451.5,355.5 Z"/></g>
<g><path style="opacity:1" fill="#262323" d="M 530.5,361.5 C 524.327,371.852 517.66,381.852 510.5,391.5C 509.733,392.172 509.066,393.005 508.5,394C 512.689,394.812 516.689,394.645 520.5,393.5C 521.227,391.046 522.227,388.713 523.5,386.5C 526.054,385.612 528.721,385.279 531.5,385.5C 531.5,390.833 531.5,396.167 531.5,401.5C 518.833,401.5 506.167,401.5 493.5,401.5C 493.5,399.833 493.5,398.167 493.5,396.5C 494.906,396.027 495.573,395.027 495.5,393.5C 496.906,393.027 497.573,392.027 497.5,390.5C 498.906,390.027 499.573,389.027 499.5,387.5C 500.906,387.027 501.573,386.027 501.5,384.5C 501.328,383.508 501.662,382.842 502.5,382.5C 503.906,382.027 504.573,381.027 504.5,379.5C 505.906,379.027 506.573,378.027 506.5,376.5C 507.906,376.027 508.573,375.027 508.5,373.5C 509.906,373.027 510.573,372.027 510.5,370.5C 511.906,370.027 512.573,369.027 512.5,367.5C 513.906,367.027 514.573,366.027 514.5,364.5C 515.043,364.44 515.376,364.107 515.5,363.5C 511.685,362.192 508.019,362.192 504.5,363.5C 503.492,365.544 502.492,367.544 501.5,369.5C 498.946,370.388 496.279,370.721 493.5,370.5C 493.5,365.5 493.5,360.5 493.5,355.5C 505.833,355.5 518.167,355.5 530.5,355.5C 530.5,357.5 530.5,359.5 530.5,361.5 Z"/></g>
<g><path style="opacity:0.863" fill="#656263" d="M 586.5,354.5 C 584.735,355.461 582.735,355.795 580.5,355.5C 580.325,357.621 580.659,359.621 581.5,361.5C 579.656,359.721 578.99,357.388 579.5,354.5C 581.833,354.5 584.167,354.5 586.5,354.5 Z"/></g>
<g><path style="opacity:1" fill="#2b2728" d="M 628.5,354.5 C 630.833,354.5 633.167,354.5 635.5,354.5C 635.5,367.5 635.5,380.5 635.5,393.5C 635.821,395.048 636.821,395.715 638.5,395.5C 639.341,397.379 639.675,399.379 639.5,401.5C 632.5,401.5 625.5,401.5 618.5,401.5C 617.971,398.396 618.971,396.063 621.5,394.5C 622.833,383.833 622.833,373.167 621.5,362.5C 620.583,361.873 619.583,361.539 618.5,361.5C 618.5,359.5 618.5,357.5 618.5,355.5C 622.042,355.813 625.375,355.479 628.5,354.5 Z"/></g>
<g><path style="opacity:0.937" fill="#605d5e" d="M 820.5,345.5 C 822.006,348.356 822.672,351.523 822.5,355C 822.496,357.361 822.163,359.527 821.5,361.5C 821.608,356.13 821.275,350.797 820.5,345.5 Z"/></g>
<g><path style="opacity:0.906" fill="#5b5959" d="M 836.5,354.5 C 833.375,355.479 830.042,355.813 826.5,355.5C 826.325,357.621 826.659,359.621 827.5,361.5C 825.656,359.721 824.99,357.388 825.5,354.5C 829.167,354.5 832.833,354.5 836.5,354.5 Z"/></g>
<g><path style="opacity:1" fill="#2b2728" d="M 836.5,354.5 C 838.833,354.5 841.167,354.5 843.5,354.5C 843.5,367.5 843.5,380.5 843.5,393.5C 843.821,395.048 844.821,395.715 846.5,395.5C 847.341,397.379 847.675,399.379 847.5,401.5C 840.5,401.5 833.5,401.5 826.5,401.5C 826.325,399.379 826.659,397.379 827.5,395.5C 828.15,395.196 828.817,394.863 829.5,394.5C 830.833,383.833 830.833,373.167 829.5,362.5C 828.817,362.137 828.15,361.804 827.5,361.5C 826.659,359.621 826.325,357.621 826.5,355.5C 830.042,355.813 833.375,355.479 836.5,354.5 Z"/></g>
<g><path style="opacity:0.937" fill="#555253" d="M 947.5,354.5 C 944.375,355.479 941.042,355.813 937.5,355.5C 937.325,357.621 937.659,359.621 938.5,361.5C 936.656,359.721 935.99,357.388 936.5,354.5C 940.167,354.5 943.833,354.5 947.5,354.5 Z"/></g>
<g><path style="opacity:1" fill="#2b2728" d="M 1130.5,354.5 C 1133.5,354.5 1136.5,354.5 1139.5,354.5C 1139.17,367.85 1139.5,381.183 1140.5,394.5C 1141.18,394.863 1141.85,395.196 1142.5,395.5C 1143.34,397.379 1143.67,399.379 1143.5,401.5C 1136.5,401.5 1129.5,401.5 1122.5,401.5C 1122.33,399.379 1122.66,397.379 1123.5,395.5C 1123.83,395.5 1124.17,395.5 1124.5,395.5C 1125.83,395.5 1126.5,394.833 1126.5,393.5C 1126.83,383.145 1126.5,372.812 1125.5,362.5C 1124.82,362.137 1124.15,361.804 1123.5,361.5C 1122.66,359.621 1122.33,357.621 1122.5,355.5C 1125.39,355.806 1128.05,355.473 1130.5,354.5 Z"/></g>
<g><path style="opacity:0.988" fill="#5d5a5b" d="M 602.5,355.5 C 602.027,356.906 601.027,357.573 599.5,357.5C 599.973,356.094 600.973,355.427 602.5,355.5 Z"/></g>
<g><path style="opacity:0.047" fill="#777575" d="M 675.5,356.5 C 677.5,356.5 678.5,357.5 678.5,359.5C 677.167,358.833 676.167,357.833 675.5,356.5 Z"/></g>
<g><path style="opacity:0.976" fill="#625f60" d="M 865.5,355.5 C 865.027,356.906 864.027,357.573 862.5,357.5C 862.973,356.094 863.973,355.427 865.5,355.5 Z"/></g>
<g><path style="opacity:0.965" fill="#4d494a" d="M 886.5,355.5 C 887.5,355.5 888.5,355.5 889.5,355.5C 889.5,360.167 889.5,364.833 889.5,369.5C 885.671,370.069 882.337,369.402 879.5,367.5C 882.391,368.403 885.391,368.736 888.5,368.5C 889.001,363.847 888.334,359.514 886.5,355.5 Z"/></g>
<g><path style="opacity:0.984" fill="#5e5b5c" d="M 959.5,355.5 C 959.027,356.906 958.027,357.573 956.5,357.5C 956.973,356.094 957.973,355.427 959.5,355.5 Z"/></g>
<g><path style="opacity:0.71" fill="#6c696a" d="M 596.5,354.5 C 597.1,355.9 598.1,356.9 599.5,357.5C 599.189,358.478 598.522,359.145 597.5,359.5C 596.548,357.955 596.215,356.288 596.5,354.5 Z"/></g>
<g><path style="opacity:0.008" fill="#7c7a7a" d="M 742.5,357.5 C 744.5,357.5 745.5,358.5 745.5,360.5C 744.167,359.833 743.167,358.833 742.5,357.5 Z"/></g>
<g><path style="opacity:0.549" fill="#767374" d="M 953.5,354.5 C 954.1,355.9 955.1,356.9 956.5,357.5C 955.828,358.267 954.995,358.934 954,359.5C 953.506,357.866 953.34,356.199 953.5,354.5 Z"/></g>
<g><path style="opacity:0.427" fill="#7b7979" d="M 1100.5,354.5 C 1101.27,355.263 1101.77,356.263 1102,357.5C 1102.67,356.748 1103.5,356.414 1104.5,356.5C 1101.09,361.017 1099.76,360.351 1100.5,354.5 Z"/></g>
<g><path style="opacity:0.98" fill="#5c595a" d="M 862.5,357.5 C 862.027,358.906 861.027,359.573 859.5,359.5C 859.973,358.094 860.973,357.427 862.5,357.5 Z"/></g>
<g><path style="opacity:1" fill="#535051" d="M 720.5,356.5 C 719.415,358.587 717.749,359.92 715.5,360.5C 716.585,358.413 718.251,357.08 720.5,356.5 Z"/></g>
<g><path style="opacity:0.545" fill="#767374" d="M 569.5,358.5 C 570.906,358.973 571.573,359.973 571.5,361.5C 570.094,361.027 569.427,360.027 569.5,358.5 Z"/></g>
<g><path style="opacity:0.557" fill="#757373" d="M 1027.5,358.5 C 1028.91,358.973 1029.57,359.973 1029.5,361.5C 1028.09,361.027 1027.43,360.027 1027.5,358.5 Z"/></g>
<g><path style="opacity:0.128" fill="#848283" d="M 472.5,364.5 C 468.717,362.993 465.05,363.327 461.5,365.5C 461.414,364.504 461.748,363.671 462.5,363C 466.5,362.333 470.5,362.333 474.5,363C 473.956,363.717 473.289,364.217 472.5,364.5 Z"/></g>
<g><path style="opacity:0.124" fill="#878586" d="M 504.5,363.5 C 508.019,362.192 511.685,362.192 515.5,363.5C 515.376,364.107 515.043,364.44 514.5,364.5C 511.375,363.521 508.042,363.187 504.5,363.5 Z"/></g>
<g><path style="opacity:0.898" fill="#737171" d="M 556.5,362.5 C 558.5,362.5 559.5,363.5 559.5,365.5C 558.167,364.833 557.167,363.833 556.5,362.5 Z"/></g>
<g><path style="opacity:0.914" fill="#5e5b5c" d="M 715.5,360.5 C 715.573,362.027 714.906,363.027 713.5,363.5C 713.427,361.973 714.094,360.973 715.5,360.5 Z"/></g>
<g><path style="opacity:0.686" fill="#6c6a6a" d="M 745.5,360.5 C 746.906,360.973 747.573,361.973 747.5,363.5C 746.094,363.027 745.427,362.027 745.5,360.5 Z"/></g>
<g><path style="opacity:0.008" fill="#848282" d="M 550.5,363.5 C 550.167,364.5 549.5,365.167 548.5,365.5C 548.5,364.167 549.167,363.5 550.5,363.5 Z"/></g>
<g><path style="opacity:0.918" fill="#706e6e" d="M 914.5,363.5 C 915.833,363.5 916.5,364.167 916.5,365.5C 915.5,365.167 914.833,364.5 914.5,363.5 Z"/></g>
<g><path style="opacity:0.09" fill="#7f7d7e" d="M 726.5,363.5 C 726.167,364.5 725.5,365.167 724.5,365.5C 724.5,364.167 725.167,363.5 726.5,363.5 Z"/></g>
<g><path style="opacity:0.8" fill="#6d6b6b" d="M 1106.5,364.5 C 1108.71,363.024 1110.04,363.691 1110.5,366.5C 1109.4,365.4 1108.06,364.733 1106.5,364.5 Z"/></g>
<g><path style="opacity:0.047" fill="#827f7f" d="M 601.5,365.5 C 601.167,366.5 600.5,367.167 599.5,367.5C 599.5,366.167 600.167,365.5 601.5,365.5 Z"/></g>
<g><path style="opacity:0.686" fill="#727070" d="M 514.5,364.5 C 514.573,366.027 513.906,367.027 512.5,367.5C 512.427,365.973 513.094,364.973 514.5,364.5 Z"/></g>
<g><path style="opacity:0.8" fill="#696667" d="M 471.5,366.5 C 471.573,368.027 470.906,369.027 469.5,369.5C 469.427,367.973 470.094,366.973 471.5,366.5 Z"/></g>
<g><path style="opacity:0.663" fill="#737171" d="M 512.5,367.5 C 512.573,369.027 511.906,370.027 510.5,370.5C 510.427,368.973 511.094,367.973 512.5,367.5 Z"/></g>
<g><path style="opacity:0.122" fill="#878485" d="M 538.5,359.5 C 537.586,362.728 537.253,366.061 537.5,369.5C 541.179,369.94 544.512,369.273 547.5,367.5C 547.5,368.5 547.5,369.5 547.5,370.5C 543.833,370.5 540.167,370.5 536.5,370.5C 535.92,366.351 536.586,362.684 538.5,359.5 Z"/></g>
<g><path style="opacity:0.12" fill="#8a8889" d="M 655.5,368.5 C 654.306,369.777 652.64,370.444 650.5,370.5C 648.631,370.493 646.964,370.16 645.5,369.5C 648.939,369.747 652.272,369.414 655.5,368.5 Z"/></g>
<g><path style="opacity:0.592" fill="#727070" d="M 668.5,366.5 C 669.473,368.948 669.806,371.615 669.5,374.5C 667.167,374.5 664.833,374.5 662.5,374.5C 664.265,373.539 666.265,373.205 668.5,373.5C 668.5,371.167 668.5,368.833 668.5,366.5 Z"/></g>
<g><path style="opacity:0.121" fill="#848283" d="M 895.5,359.5 C 894.586,362.728 894.253,366.061 894.5,369.5C 897.5,369.5 900.5,369.5 903.5,369.5C 900.375,370.479 897.042,370.813 893.5,370.5C 892.92,366.351 893.586,362.684 895.5,359.5 Z"/></g>
<g><path style="opacity:0.119" fill="#828081" d="M 1042.5,359.5 C 1041.59,362.728 1041.25,366.061 1041.5,369.5C 1044.5,369.5 1047.5,369.5 1050.5,369.5C 1047.38,370.479 1044.04,370.813 1040.5,370.5C 1039.92,366.351 1040.59,362.684 1042.5,359.5 Z"/></g>
<g><path style="opacity:0.122" fill="#898788" d="M 1149.5,360.5 C 1149.5,363.5 1149.5,366.5 1149.5,369.5C 1153.18,369.94 1156.51,369.273 1159.5,367.5C 1159.5,368.5 1159.5,369.5 1159.5,370.5C 1155.83,370.5 1152.17,370.5 1148.5,370.5C 1148.19,366.958 1148.52,363.625 1149.5,360.5 Z"/></g>
<g><path style="opacity:0.863" fill="#646162" d="M 501.5,369.5 C 499.365,371.369 496.698,372.036 493.5,371.5C 493.5,371.167 493.5,370.833 493.5,370.5C 496.279,370.721 498.946,370.388 501.5,369.5 Z"/></g>
<g><path style="opacity:0.792" fill="#6a6768" d="M 469.5,369.5 C 469.573,371.027 468.906,372.027 467.5,372.5C 467.427,370.973 468.094,369.973 469.5,369.5 Z"/></g>
<g><path style="opacity:0.686" fill="#6e6b6c" d="M 736.5,367.5 C 737.451,368.919 737.784,370.585 737.5,372.5C 732.125,372.828 726.792,372.495 721.5,371.5C 721.624,370.893 721.957,370.56 722.5,370.5C 726.97,371.486 731.637,371.819 736.5,371.5C 736.5,370.167 736.5,368.833 736.5,367.5 Z"/></g>
<g><path style="opacity:0.663" fill="#747172" d="M 510.5,370.5 C 510.573,372.027 509.906,373.027 508.5,373.5C 508.427,371.973 509.094,370.973 510.5,370.5 Z"/></g>
<g><path style="opacity:0.792" fill="#6a6768" d="M 467.5,372.5 C 467.573,374.027 466.906,375.027 465.5,375.5C 465.427,373.973 466.094,372.973 467.5,372.5 Z"/></g>
<g><path style="opacity:0.659" fill="#747172" d="M 508.5,373.5 C 508.573,375.027 507.906,376.027 506.5,376.5C 506.427,374.973 507.094,373.973 508.5,373.5 Z"/></g>
<g><path style="opacity:1" fill="#4d4a4a" d="M 662.5,374.5 C 660.095,375.768 657.428,376.435 654.5,376.5C 656.838,374.96 659.505,374.294 662.5,374.5 Z"/></g>
<g><path style="opacity:0.753" fill="#716f6f" d="M 403.5,375.5 C 400.375,376.479 397.042,376.813 393.5,376.5C 393.5,381.833 393.5,387.167 393.5,392.5C 392.511,387.025 392.178,381.358 392.5,375.5C 396.167,375.5 399.833,375.5 403.5,375.5 Z"/></g>
<g><path style="opacity:0.613" fill="#797677" d="M 802.5,375.5 C 799.713,376.477 796.713,376.81 793.5,376.5C 793.5,381.833 793.5,387.167 793.5,392.5C 792.511,387.025 792.178,381.358 792.5,375.5C 795.833,375.5 799.167,375.5 802.5,375.5 Z"/></g>
<g><path style="opacity:0.773" fill="#6c6a6a" d="M 465.5,375.5 C 465.573,377.027 464.906,378.027 463.5,378.5C 463.427,376.973 464.094,375.973 465.5,375.5 Z"/></g>
<g><path style="opacity:0.635" fill="#757273" d="M 506.5,376.5 C 506.573,378.027 505.906,379.027 504.5,379.5C 504.427,377.973 505.094,376.973 506.5,376.5 Z"/></g>
<g><path style="opacity:0.976" fill="#605e5e" d="M 651.5,377.5 C 651.027,378.906 650.027,379.573 648.5,379.5C 648.973,378.094 649.973,377.427 651.5,377.5 Z"/></g>
<g><path style="opacity:0.949" fill="#686465" d="M 541.5,378.5 C 541.027,379.906 540.027,380.573 538.5,380.5C 538.973,379.094 539.973,378.427 541.5,378.5 Z"/></g>
<g><path style="opacity:0.341" fill="#817f80" d="M 749.5,371.5 C 750.477,374.287 750.81,377.287 750.5,380.5C 741.167,380.5 731.833,380.5 722.5,380.5C 722.5,382.167 722.5,383.833 722.5,385.5C 721.539,383.735 721.205,381.735 721.5,379.5C 730.833,379.5 740.167,379.5 749.5,379.5C 749.5,376.833 749.5,374.167 749.5,371.5 Z"/></g>
<g><path style="opacity:0.973" fill="#5f5c5d" d="M 898.5,378.5 C 898.027,379.906 897.027,380.573 895.5,380.5C 895.973,379.094 896.973,378.427 898.5,378.5 Z"/></g>
<g><path style="opacity:0.773" fill="#6c696a" d="M 463.5,378.5 C 463.573,380.027 462.906,381.027 461.5,381.5C 461.427,379.973 462.094,378.973 463.5,378.5 Z"/></g>
<g><path style="opacity:0.635" fill="#757273" d="M 504.5,379.5 C 504.573,381.027 503.906,382.027 502.5,382.5C 502.427,380.973 503.094,379.973 504.5,379.5 Z"/></g>
<g><path style="opacity:0.89" fill="#666464" d="M 1152.5,379.5 C 1151.83,380.833 1150.83,381.833 1149.5,382.5C 1149.5,380.5 1150.5,379.5 1152.5,379.5 Z"/></g>
<g><path style="opacity:0.851" fill="#686666" d="M 538.5,380.5 C 538.573,382.027 537.906,383.027 536.5,383.5C 536.427,381.973 537.094,380.973 538.5,380.5 Z"/></g>
<g><path style="opacity:0.929" fill="#5d5a5a" d="M 895.5,380.5 C 895.573,382.027 894.906,383.027 893.5,383.5C 893.427,381.973 894.094,380.973 895.5,380.5 Z"/></g>
<g><path style="opacity:0.753" fill="#6d6a6a" d="M 461.5,381.5 C 461.573,383.027 460.906,384.027 459.5,384.5C 459.427,382.973 460.094,381.973 461.5,381.5 Z"/></g>
<g><path style="opacity:0.655" fill="#726f6f" d="M 1041.5,381.5 C 1041.57,383.027 1040.91,384.027 1039.5,384.5C 1039.43,382.973 1040.09,381.973 1041.5,381.5 Z"/></g>
<g><path style="opacity:0.863" fill="#625f60" d="M 531.5,384.5 C 531.5,384.833 531.5,385.167 531.5,385.5C 528.721,385.279 526.054,385.612 523.5,386.5C 525.635,384.631 528.302,383.964 531.5,384.5 Z"/></g>
<g><path style="opacity:0.008" fill="#827f80" d="M 550.5,383.5 C 549.833,384.833 548.833,385.833 547.5,386.5C 547.5,384.5 548.5,383.5 550.5,383.5 Z"/></g>
<g><path style="opacity:0.427" fill="#797676" d="M 645.5,382.5 C 645.573,384.027 644.906,385.027 643.5,385.5C 643.427,383.973 644.094,382.973 645.5,382.5 Z"/></g>
<g><path style="opacity:0.753" fill="#6d6b6b" d="M 459.5,384.5 C 459.573,386.027 458.906,387.027 457.5,387.5C 457.427,385.973 458.094,384.973 459.5,384.5 Z"/></g>
<g><path style="opacity:0.918" fill="#5b5859" d="M 501.5,384.5 C 501.573,386.027 500.906,387.027 499.5,387.5C 499.427,385.973 500.094,384.973 501.5,384.5 Z"/></g>
<g><path style="opacity:0.91" fill="#666364" d="M 745.5,387.5 C 743.167,388.833 740.833,390.167 738.5,391.5C 740.127,389.37 741.96,387.37 744,385.5C 744.717,386.044 745.217,386.711 745.5,387.5 Z"/></g>
<g><path style="opacity:0.91" fill="#706d6d" d="M 886.5,387.5 C 887.906,387.973 888.573,388.973 888.5,390.5C 887.094,390.027 886.427,389.027 886.5,387.5 Z"/></g>
<g><path style="opacity:0.745" fill="#6e6b6c" d="M 457.5,387.5 C 457.573,389.027 456.906,390.027 455.5,390.5C 455.427,388.973 456.094,387.973 457.5,387.5 Z"/></g>
<g><path style="opacity:0.918" fill="#5b5859" d="M 499.5,387.5 C 499.573,389.027 498.906,390.027 497.5,390.5C 497.427,388.973 498.094,387.973 499.5,387.5 Z"/></g>
<g><path style="opacity:0.973" fill="#676465" d="M 723.5,388.5 C 724.833,389.167 725.833,390.167 726.5,391.5C 724.5,391.5 723.5,390.5 723.5,388.5 Z"/></g>
<g><path style="opacity:0.957" fill="#5c595a" d="M 668.5,388.5 C 668.167,390.833 666.833,392.167 664.5,392.5C 665.5,390.833 666.833,389.5 668.5,388.5 Z"/></g>
<g><path style="opacity:0.78" fill="#716f6f" d="M 866.5,388.5 C 867.906,388.973 868.573,389.973 868.5,391.5C 867.094,391.027 866.427,390.027 866.5,388.5 Z"/></g>
<g><path style="opacity:0.918" fill="#6c696a" d="M 882.5,389.5 C 882.027,390.906 881.027,391.573 879.5,391.5C 879.973,390.094 880.973,389.427 882.5,389.5 Z"/></g>
<g><path style="opacity:0.925" fill="#6e6b6c" d="M 1050.5,390.5 C 1051.87,391.512 1053.2,392.512 1054.5,393.5C 1052.03,393.912 1050.69,392.912 1050.5,390.5 Z"/></g>
<g><path style="opacity:0.733" fill="#6f6c6d" d="M 455.5,390.5 C 455.573,392.027 454.906,393.027 453.5,393.5C 453.427,391.973 454.094,390.973 455.5,390.5 Z"/></g>
<g><path style="opacity:0.906" fill="#5d5a5b" d="M 497.5,390.5 C 497.573,392.027 496.906,393.027 495.5,393.5C 495.427,391.973 496.094,390.973 497.5,390.5 Z"/></g>
<g><path style="opacity:0.247" fill="#777474" d="M 547.5,391.5 C 548.995,391.989 550.329,392.655 551.5,393.5C 549.517,393.843 548.183,393.176 547.5,391.5 Z"/></g>
<g><path style="opacity:0.216" fill="#7b7979" d="M 904.5,391.5 C 905.995,391.989 907.329,392.655 908.5,393.5C 906.517,393.843 905.183,393.176 904.5,391.5 Z"/></g>
<g><path style="opacity:0.441" fill="#7c7a7a" d="M 468.5,391.5 C 470.988,393.388 473.988,394.055 477.5,393.5C 474.024,394.643 470.358,394.81 466.5,394C 467.066,393.005 467.733,392.172 468.5,391.5 Z"/></g>
<g><path style="opacity:0.443" fill="#7c797a" d="M 510.5,391.5 C 513.337,393.402 516.671,394.069 520.5,393.5C 516.689,394.645 512.689,394.812 508.5,394C 509.066,393.005 509.733,392.172 510.5,391.5 Z"/></g>
<g><path style="opacity:0.008" fill="#7c7a7a" d="M 889.5,391.5 C 890.858,393.743 890.192,395.409 887.5,396.5C 888.167,394.833 888.833,393.167 889.5,391.5 Z"/></g>
<g><path style="opacity:0.016" fill="#7c7a7a" d="M 443.5,393.5 C 444.71,393.932 445.71,394.599 446.5,395.5C 444.821,395.715 443.821,395.048 443.5,393.5 Z"/></g>
<g><path style="opacity:0.055" fill="#7a7878" d="M 597.5,393.5 C 598.71,393.932 599.71,394.599 600.5,395.5C 598.821,395.715 597.821,395.048 597.5,393.5 Z"/></g>
<g><path style="opacity:0.016" fill="#7c7a7a" d="M 635.5,393.5 C 636.71,393.932 637.71,394.599 638.5,395.5C 636.821,395.715 635.821,395.048 635.5,393.5 Z"/></g>
<g><path style="opacity:0.008" fill="#7e7c7c" d="M 681.5,393.5 C 682.71,393.932 683.71,394.599 684.5,395.5C 682.821,395.715 681.821,395.048 681.5,393.5 Z"/></g>
<g><path style="opacity:0.008" fill="#7f7c7d" d="M 843.5,393.5 C 844.71,393.932 845.71,394.599 846.5,395.5C 844.821,395.715 843.821,395.048 843.5,393.5 Z"/></g>
<g><path style="opacity:0.016" fill="#7e7c7c" d="M 980.5,393.5 C 981.71,393.932 982.71,394.599 983.5,395.5C 981.821,395.715 980.821,395.048 980.5,393.5 Z"/></g>
<g><path style="opacity:0.953" fill="#6c696a" d="M 992.5,393.5 C 992.179,395.048 991.179,395.715 989.5,395.5C 990.29,394.599 991.29,393.932 992.5,393.5 Z"/></g>
<g><path style="opacity:0.898" fill="#716e6e" d="M 1088.5,393.5 C 1088.5,394.833 1087.83,395.5 1086.5,395.5C 1086.83,394.5 1087.5,393.833 1088.5,393.5 Z"/></g>
<g><path style="opacity:0.016" fill="#807e7e" d="M 1101.5,393.5 C 1102.71,393.932 1103.71,394.599 1104.5,395.5C 1102.82,395.715 1101.82,395.048 1101.5,393.5 Z"/></g>
<g><path style="opacity:0.898" fill="#716e6e" d="M 1126.5,393.5 C 1126.5,394.833 1125.83,395.5 1124.5,395.5C 1124.83,394.5 1125.5,393.833 1126.5,393.5 Z"/></g>
<g><path style="opacity:0.733" fill="#6f6c6d" d="M 453.5,393.5 C 453.573,395.027 452.906,396.027 451.5,396.5C 451.427,394.973 452.094,393.973 453.5,393.5 Z"/></g>
<g><path style="opacity:0.906" fill="#5d5a5b" d="M 495.5,393.5 C 495.573,395.027 494.906,396.027 493.5,396.5C 493.427,394.973 494.094,393.973 495.5,393.5 Z"/></g>
<g><path style="opacity:0.992" fill="#625f5f" d="M 715.5,397.5 C 717.404,397.738 718.738,398.738 719.5,400.5C 717.596,400.262 716.262,399.262 715.5,397.5 Z"/></g>
<g><path style="opacity:0.008" fill="#838081" d="M 887.5,396.5 C 887.027,397.906 886.027,398.573 884.5,398.5C 884.973,397.094 885.973,396.427 887.5,396.5 Z"/></g>
<g><path style="opacity:0.016" fill="#777575" d="M 1148.5,396.5 C 1150.17,397.5 1151.5,398.833 1152.5,400.5C 1150.17,400.167 1148.83,398.833 1148.5,396.5 Z"/></g>
<g><path style="opacity:0.906" fill="#625f60" d="M 537.5,398.5 C 539.027,398.427 540.027,399.094 540.5,400.5C 538.973,400.573 537.973,399.906 537.5,398.5 Z"/></g>
<g><path style="opacity:0.596" fill="#757273" d="M 895.5,399.5 C 897.027,399.427 898.027,400.094 898.5,401.5C 896.973,401.573 895.973,400.906 895.5,399.5 Z"/></g>
<g><path style="opacity:0.659" fill="#716f6f" d="M 1042.5,399.5 C 1044.03,399.427 1045.03,400.094 1045.5,401.5C 1043.97,401.573 1042.97,400.906 1042.5,399.5 Z"/></g>
<g><path style="opacity:0.529" fill="#7b7979" d="M 376.5,395.5 C 375.659,397.379 375.325,399.379 375.5,401.5C 383.167,401.5 390.833,401.5 398.5,401.5C 398.675,399.379 398.341,397.379 397.5,395.5C 399.344,397.279 400.01,399.612 399.5,402.5C 391.167,402.5 382.833,402.5 374.5,402.5C 373.99,399.612 374.656,397.279 376.5,395.5 Z"/></g>
<g><path style="opacity:0.529" fill="#797677" d="M 446.5,395.5 C 448.344,397.279 449.01,399.612 448.5,402.5C 441.167,402.5 433.833,402.5 426.5,402.5C 426.5,402.167 426.5,401.833 426.5,401.5C 433.5,401.5 440.5,401.5 447.5,401.5C 447.675,399.379 447.341,397.379 446.5,395.5 Z"/></g>
<g><path style="opacity:0.529" fill="#7c797a" d="M 490.5,402.5 C 477.167,402.5 463.833,402.5 450.5,402.5C 450.205,400.265 450.539,398.265 451.5,396.5C 451.5,398.167 451.5,399.833 451.5,401.5C 464.167,401.5 476.833,401.5 489.5,401.5C 489.5,396.167 489.5,390.833 489.5,385.5C 486.467,385.132 483.8,385.798 481.5,387.5C 481.5,386.5 481.5,385.5 481.5,384.5C 484.5,384.5 487.5,384.5 490.5,384.5C 490.5,390.5 490.5,396.5 490.5,402.5 Z"/></g>
<g><path style="opacity:0.529" fill="#7f7d7d" d="M 531.5,384.5 C 532.49,390.31 532.823,396.31 532.5,402.5C 519.167,402.5 505.833,402.5 492.5,402.5C 492.205,400.265 492.539,398.265 493.5,396.5C 493.5,398.167 493.5,399.833 493.5,401.5C 506.167,401.5 518.833,401.5 531.5,401.5C 531.5,396.167 531.5,390.833 531.5,385.5C 531.5,385.167 531.5,384.833 531.5,384.5 Z"/></g>
<g><path style="opacity:0.529" fill="#807d7e" d="M 575.5,395.5 C 576.5,395.5 577.5,395.5 578.5,395.5C 578.5,397.833 578.5,400.167 578.5,402.5C 572.5,402.5 566.5,402.5 560.5,402.5C 560.715,400.821 560.048,399.821 558.5,399.5C 561.031,396.621 562.031,397.288 561.5,401.5C 566.833,401.5 572.167,401.5 577.5,401.5C 577.741,399.114 577.075,397.114 575.5,395.5 Z"/></g>
<g><path style="opacity:0.529" fill="#7e7b7c" d="M 600.5,395.5 C 601.5,395.5 602.5,395.5 603.5,395.5C 603.5,397.833 603.5,400.167 603.5,402.5C 595.833,402.5 588.167,402.5 580.5,402.5C 580.5,402.167 580.5,401.833 580.5,401.5C 587.833,401.5 595.167,401.5 602.5,401.5C 602.741,399.114 602.075,397.114 600.5,395.5 Z"/></g>
<g><path style="opacity:0.529" fill="#797677" d="M 638.5,395.5 C 640.344,397.279 641.01,399.612 640.5,402.5C 633.167,402.5 625.833,402.5 618.5,402.5C 618.5,402.167 618.5,401.833 618.5,401.5C 625.5,401.5 632.5,401.5 639.5,401.5C 639.675,399.379 639.341,397.379 638.5,395.5 Z"/></g>
<g><path style="opacity:0.529" fill="#747172" d="M 684.5,395.5 C 686.344,397.279 687.01,399.612 686.5,402.5C 680.833,402.5 675.167,402.5 669.5,402.5C 669.768,400.901 669.434,399.568 668.5,398.5C 668.56,397.957 668.893,397.624 669.5,397.5C 670.429,398.689 670.762,400.022 670.5,401.5C 675.5,401.5 680.5,401.5 685.5,401.5C 685.675,399.379 685.341,397.379 684.5,395.5 Z"/></g>
<g><path style="opacity:0.529" fill="#7c7a7b" d="M 776.5,395.5 C 775.659,397.379 775.325,399.379 775.5,401.5C 783.167,401.5 790.833,401.5 798.5,401.5C 798.675,399.379 798.341,397.379 797.5,395.5C 799.344,397.279 800.01,399.612 799.5,402.5C 791.167,402.5 782.833,402.5 774.5,402.5C 773.99,399.612 774.656,397.279 776.5,395.5 Z"/></g>
<g><path style="opacity:0.529" fill="#7e7b7c" d="M 827.5,395.5 C 826.659,397.379 826.325,399.379 826.5,401.5C 833.5,401.5 840.5,401.5 847.5,401.5C 847.675,399.379 847.341,397.379 846.5,395.5C 848.344,397.279 849.01,399.612 848.5,402.5C 840.833,402.5 833.167,402.5 825.5,402.5C 824.99,399.612 825.656,397.279 827.5,395.5 Z"/></g>
<g><path style="opacity:0.529" fill="#7e7b7c" d="M 934.5,401.5 C 934.5,401.833 934.5,402.167 934.5,402.5C 928.833,402.5 923.167,402.5 917.5,402.5C 917.715,400.821 917.048,399.821 915.5,399.5C 918.031,396.621 919.031,397.288 918.5,401.5C 923.833,401.5 929.167,401.5 934.5,401.5 Z"/></g>
<g><path style="opacity:0.529" fill="#7d7b7b" d="M 938.5,395.5 C 937.659,397.379 937.325,399.379 937.5,401.5C 944.5,401.5 951.5,401.5 958.5,401.5C 958.675,399.379 958.341,397.379 957.5,395.5C 959.344,397.279 960.01,399.612 959.5,402.5C 951.833,402.5 944.167,402.5 936.5,402.5C 935.99,399.612 936.656,397.279 938.5,395.5 Z"/></g>
<g><path style="opacity:0.529" fill="#7c797a" d="M 964.5,395.5 C 963.659,397.379 963.325,399.379 963.5,401.5C 970.5,401.5 977.5,401.5 984.5,401.5C 984.675,399.379 984.341,397.379 983.5,395.5C 985.344,397.279 986.01,399.612 985.5,402.5C 977.833,402.5 970.167,402.5 962.5,402.5C 961.99,399.612 962.656,397.279 964.5,395.5 Z"/></g>
<g><path style="opacity:0.529" fill="#7a7878" d="M 989.5,395.5 C 988.659,397.379 988.325,399.379 988.5,401.5C 995.5,401.5 1002.5,401.5 1009.5,401.5C 1009.74,399.114 1009.07,397.114 1007.5,395.5C 1008.5,395.5 1009.5,395.5 1010.5,395.5C 1010.5,397.833 1010.5,400.167 1010.5,402.5C 1002.83,402.5 995.167,402.5 987.5,402.5C 986.99,399.612 987.656,397.279 989.5,395.5 Z"/></g>
<g><path style="opacity:0.529" fill="#7d7a7b" d="M 1015.5,395.5 C 1014.66,397.379 1014.33,399.379 1014.5,401.5C 1021.5,401.5 1028.5,401.5 1035.5,401.5C 1035.67,399.379 1035.34,397.379 1034.5,395.5C 1036.34,397.279 1037.01,399.612 1036.5,402.5C 1028.83,402.5 1021.17,402.5 1013.5,402.5C 1012.99,399.612 1013.66,397.279 1015.5,395.5 Z"/></g>
<g><path style="opacity:0.529" fill="#7c797a" d="M 1081.5,401.5 C 1081.5,401.833 1081.5,402.167 1081.5,402.5C 1075.83,402.5 1070.17,402.5 1064.5,402.5C 1064.71,400.821 1064.05,399.821 1062.5,399.5C 1062.81,398.522 1063.48,397.855 1064.5,397.5C 1065.43,398.689 1065.76,400.022 1065.5,401.5C 1070.83,401.5 1076.17,401.5 1081.5,401.5 Z"/></g>
<g><path style="opacity:0.529" fill="#7f7c7d" d="M 1085.5,395.5 C 1084.66,397.379 1084.33,399.379 1084.5,401.5C 1091.83,401.5 1099.17,401.5 1106.5,401.5C 1106.5,401.833 1106.5,402.167 1106.5,402.5C 1098.83,402.5 1091.17,402.5 1083.5,402.5C 1082.99,399.612 1083.66,397.279 1085.5,395.5 Z"/></g>
<g><path style="opacity:0.529" fill="#7e7b7c" d="M 1123.5,395.5 C 1122.66,397.379 1122.33,399.379 1122.5,401.5C 1129.5,401.5 1136.5,401.5 1143.5,401.5C 1143.67,399.379 1143.34,397.379 1142.5,395.5C 1144.34,397.279 1145.01,399.612 1144.5,402.5C 1136.83,402.5 1129.17,402.5 1121.5,402.5C 1120.99,399.612 1121.66,397.279 1123.5,395.5 Z"/></g>
<g><path style="opacity:0.529" fill="#7e7b7c" d="M 1188.5,395.5 C 1190.34,397.279 1191.01,399.612 1190.5,402.5C 1184.83,402.5 1179.17,402.5 1173.5,402.5C 1173.5,402.167 1173.5,401.833 1173.5,401.5C 1178.83,401.5 1184.17,401.5 1189.5,401.5C 1189.67,399.379 1189.34,397.379 1188.5,395.5 Z"/></g>
</svg>
